<svg xmlns="http://www.w3.org/2000/svg" width="100%" height="100%" viewBox="0 0 1000 400" preserveAspectRatio="xMidYMid slice">
  <defs>
    <pattern id="guilloche" width="100" height="100" patternUnits="userSpaceOnUse" patternTransform="scale(2)">
      <path d="M0,50 Q25,25 50,50 T100,50" fill="none" stroke="rgba(14, 116, 75, 0.15)" stroke-width="0.5"/>
      <path d="M0,50 Q25,75 50,50 T100,50" fill="none" stroke="rgba(14, 116, 75, 0.15)" stroke-width="0.5"/>
      <path d="M50,0 Q25,25 50,50 T50,100" fill="none" stroke="rgba(14, 116, 75, 0.15)" stroke-width="0.5"/>
      <path d="M50,0 Q75,25 50,50 T50,100" fill="none" stroke="rgba(14, 116, 75, 0.15)" stroke-width="0.5"/>
    </pattern>
    <radialGradient id="fade" cx="50%" cy="50%" r="50%" fx="50%" fy="50%">
      <stop offset="0%" stop-color="white" stop-opacity="1" />
      <stop offset="100%" stop-color="white" stop-opacity="0" />
    </radialGradient>
  </defs>
  <rect width="100%" height="100%" fill="url(#guilloche)" />
  <g transform="scale(2) translate(-250, -100)" opacity="0.6">
     <path d="M0,200 C300,50 700,350 1000,200" fill="none" stroke="rgba(14, 116, 75, 0.2)" stroke-width="0.5"/>
     <path d="M0,220 C300,70 700,370 1000,220" fill="none" stroke="rgba(14, 116, 75, 0.2)" stroke-width="0.5"/>
     <path d="M0,240 C300,90 700,390 1000,240" fill="none" stroke="rgba(14, 116, 75, 0.2)" stroke-width="0.5"/>
     <path d="M0,180 C300,30 700,330 1000,180" fill="none" stroke="rgba(14, 116, 75, 0.2)" stroke-width="0.5"/>
     <path d="M0,160 C300,10 700,310 1000,160" fill="none" stroke="rgba(14, 116, 75, 0.2)" stroke-width="0.5"/>
  </g>
  <g transform="scale(2) translate(-250, -100) scale(1, -1) translate(0, -400)" opacity="0.6">
     <path d="M0,200 C300,50 700,350 1000,200" fill="none" stroke="rgba(14, 116, 75, 0.2)" stroke-width="0.5"/>
     <path d="M0,220 C300,70 700,370 1000,220" fill="none" stroke="rgba(14, 116, 75, 0.2)" stroke-width="0.5"/>
     <path d="M0,240 C300,90 700,390 1000,240" fill="none" stroke="rgba(14, 116, 75, 0.2)" stroke-width="0.5"/>
     <path d="M0,180 C300,30 700,330 1000,180" fill="none" stroke="rgba(14, 116, 75, 0.2)" stroke-width="0.5"/>
     <path d="M0,160 C300,10 700,310 1000,160" fill="none" stroke="rgba(14, 116, 75, 0.2)" stroke-width="0.5"/>
  </g>
</svg>
